<?xml version="1.0" encoding="utf-8"?>
<!-- Generator: Adobe Illustrator 17.0.2, SVG Export Plug-In . SVG Version: 6.00 Build 0)  -->
<!DOCTYPE svg PUBLIC "-//W3C//DTD SVG 1.1//EN" "http://www.w3.org/Graphics/SVG/1.1/DTD/svg11.dtd">
<svg version="1.1" id="Layer_1" xmlns="http://www.w3.org/2000/svg" xmlns:xlink="http://www.w3.org/1999/xlink" x="0px" y="0px"
	 width="12.75px" height="13.781px" viewBox="0 0 12.75 13.781" enable-background="new 0 0 12.75 13.781" xml:space="preserve">
<g>
	<polygon fill="#FFFFFF" points="7.08,6.763 4.796,4.016 9.222,0.808 12.013,3.53 9.913,9.884 	"/>
	<path d="M9.172,1.481l2.249,2.193L9.7,8.882L7.492,6.45L5.546,4.11L9.172,1.481 M9.271,0.135L4.047,3.922L6.698,7.11l3.427,3.776
		l2.479-7.5L9.271,0.135L9.271,0.135z"/>
</g>
<g>
	<polygon fill="#FFFFFF" points="0.619,13.12 0.619,0.65 8.755,0.65 8.755,3.9 12.088,3.9 12.088,13.12 	"/>
	<path d="M8.24,1.166v2.219v1.03h1.03h2.303v8.19H1.134V1.166H8.24 M9.271,0.135H0.104v13.5h12.5V3.385H9.271V0.135L9.271,0.135z"/>
</g>
<line fill="none" stroke="#000000" stroke-width="1.032" stroke-miterlimit="10" x1="3.438" y1="7.278" x2="8.938" y2="7.278"/>
<line fill="none" stroke="#000000" stroke-width="1.032" stroke-miterlimit="10" x1="6.219" y1="4.653" x2="6.219" y2="10.153"/>
</svg>
