<?xml version="1.0" encoding="utf-8"?>
<!-- Generator: Adobe Illustrator 16.0.0, SVG Export Plug-In . SVG Version: 6.00 Build 0)  -->
<!DOCTYPE svg PUBLIC "-//W3C//DTD SVG 1.1//EN" "http://www.w3.org/Graphics/SVG/1.1/DTD/svg11.dtd">
<svg version="1.1" id="Layer_1" xmlns="http://www.w3.org/2000/svg" xmlns:xlink="http://www.w3.org/1999/xlink" x="0px" y="0px"
	 width="360px" height="360px" viewBox="0 0 360 360" enable-background="new 0 0 360 360" xml:space="preserve">
<path fill="#09743B" d="M274.334,66.333c-10.667,20.667-14,34.667-14,34.667C227,76.333,207,91,195,101s-18,54-56,29.333
	s-42-43.334-33.333-62.667S69.667,14.333,55,47s-55.333,90.667-34,126s32.667,108,113.333,84s144.667,0.667,122,24
	S211,320.999,193.667,329.666C268.334,319,433.001,344.333,274.334,66.333z M261,228.333c-38,0.667-116-24-110-49.333
	c0,0,38.667-28.667,68-37.333s64,4.667,79.334,35.333S299,227.666,261,228.333z"/>
</svg>
