<?xml version="1.0" encoding="utf-8"?>
<!-- Generator: Adobe Illustrator 16.0.0, SVG Export Plug-In . SVG Version: 6.00 Build 0)  -->
<!DOCTYPE svg PUBLIC "-//W3C//DTD SVG 1.1//EN" "http://www.w3.org/Graphics/SVG/1.1/DTD/svg11.dtd">
<svg version="1.1" id="Layer_1" xmlns="http://www.w3.org/2000/svg" xmlns:xlink="http://www.w3.org/1999/xlink" x="0px" y="0px"
	 width="422px" height="414.6px" viewBox="0 0 422 414.6" enable-background="new 0 0 422 414.6" xml:space="preserve" preserveAspectRatio="none">
<path fill="#F7941E" stroke="#8DC63F" stroke-width="3" stroke-miterlimit="10" d="M286.8,54.6C243.6,83.4,221.184,93.227,183.6,41
	c-61.6-85.6-113.6-4-68,52.8s-16.8,56-91.2,92s64,103.2,137.6,52s95.2,3.2,144,132.8c48.8,129.599,124.8-100.8,77.6-117.6
	S346,165.8,402.8,92.2S330,25.8,286.8,54.6z M293.6,216.2c-29.823,0-54-25.609-54-57.2c0-31.591,24.176-57.2,54-57.2
	s54,25.609,54,57.2C347.6,190.591,323.423,216.2,293.6,216.2z"/>
</svg>
